# Blender 4.2.0
# www.blender.org
o Cube
v 0.694832 0.694832 -0.694832
v 0.694832 -0.694832 -0.694832
v 0.694832 0.694832 0.694832
v 0.694832 -0.694832 0.694832
v -0.694832 0.694832 -0.694832
v -0.694832 -0.694832 -0.694832
v -0.694832 0.694832 0.694832
v -0.694832 -0.694832 0.694832
vn -0.0000 1.0000 -0.0000
vn -0.0000 -0.0000 1.0000
vn -1.0000 -0.0000 -0.0000
vn -0.0000 -1.0000 -0.0000
vn 1.0000 -0.0000 -0.0000
vn -0.0000 -0.0000 -1.0000
vt 1.001728 0.001766
vt -0.000919 1.004413
vt -0.000919 0.001766
vt 0.999691 0.000937
vt 0.000307 1.000322
vt 0.000307 0.000937
vt 0.998175 -0.007512
vt -0.006948 0.997613
vt -0.006948 -0.007512
vt 1.006786 -0.004036
vt 0.001174 1.001576
vt 0.001174 -0.004036
vt 0.994106 0.011109
vt 0.001506 1.003710
vt 0.001506 0.011109
vt 0.995423 0.007933
vt 0.000190 1.003167
vt 0.000190 0.007933
vt 1.001728 1.004413
vt 0.999691 1.000322
vt 0.998175 0.997613
vt 1.006786 1.001576
vt 0.994106 1.003710
vt 0.995423 1.003167
s 0
f 5/1/1 3/2/1 1/3/1
f 3/4/2 8/5/2 4/6/2
f 7/7/3 6/8/3 8/9/3
f 2/10/4 8/11/4 6/12/4
f 1/13/5 4/14/5 2/15/5
f 5/16/6 2/17/6 6/18/6
f 5/1/1 7/19/1 3/2/1
f 3/4/2 7/20/2 8/5/2
f 7/7/3 5/21/3 6/8/3
f 2/10/4 4/22/4 8/11/4
f 1/13/5 3/23/5 4/14/5
f 5/16/6 1/24/6 2/17/6
